# xmcd CD database file
#
# Track frame offsets:
#	187
#	11997
#	23122
#	35967
#	50765
#	63677
#	76125
#	86852
#	100347
#	111762
#	123817
#	139095
#	152290
#	165507
#
# Disc length: 2368 seconds
#
# Revision: 3
# Processed by: cddbd v1.5PL3 Copyright (c) Steve Scherf et al.
# Submitted via: CDex 1.50beta10
#
DISCID=b7093e0e
DTITLE=Sonny Boy Williamson Ii - Down And Out Blues
DYEAR=1959
DGENRE=Blues
TTITLE0=Don't Start Me To Talkin'
TTITLE1=I Don't Know
TTITLE2=All My Love In Vain
TTITLE3=The Key(To Your Door)
TTITLE4=Keep It To Yourself
TTITLE5=Dissatisfied
TTITLE6=Fattening Frogs For Snakes
TTITLE7=Wake Up Baby
TTITLE8=Your Funeral And My Trial
TTITLE9="99"
TTITLE10=Cross My Heart
TTITLE11=Let Me Explain
TTITLE12=I Don't Know(Alternate)
TTITLE13=Fattening Frogs For Snakes(Alternate)
EXTD=YEAR: 1959
EXTT0=
EXTT1=
EXTT2=
EXTT3=
EXTT4=
EXTT5=
EXTT6=
EXTT7=
EXTT8=
EXTT9=
EXTT10=
EXTT11=
EXTT12=
EXTT13=
PLAYORDER=
